<?xml version="1.0" encoding="utf-8"?>
<svg version="1.1" id="collecticon-circle-information" xmlns="http://www.w3.org/2000/svg" xmlns:xlink="http://www.w3.org/1999/xlink" width="16px" height="16px" viewBox="0 0 16 16">
  <rect fill="none" width="16" height="16" />
  <path d="M7,12h2V7H7V12z M8,4C7.4,4,7,4.4,7,5s0.4,1,1,1c0.6,0,1-0.4,1-1S8.6,4,8,4z M8,0C3.6,0,0,3.6,0,8c0,4.4,3.6,8,8,8 s8-3.6,8-8C16,3.6,12.4,0,8,0z M12.2,12.2C11.1,13.4,9.6,14,8,14s-3.1-0.6-4.2-1.8C2.6,11.1,2,9.6,2,8s0.6-3.1,1.8-4.2 C4.9,2.6,6.4,2,8,2s3.1,0.6,4.2,1.8C13.4,4.9,14,6.4,14,8C14,9.6,13.4,11.1,12.2,12.2z" />
</svg>
