<?xml version="1.0" encoding="utf-8"?>
<svg version="1.1" id="collecticon-face-sad" xmlns="http://www.w3.org/2000/svg" xmlns:xlink="http://www.w3.org/1999/xlink" width="16px" height="16px" viewBox="0 0 16 16">
  <rect fill="none" width="16" height="16" />
  <path d="M8,8c-1.9,0-3.4,1.3-3.9,3h2.1c0.3-0.6,1-1,1.7-1s1.4,0.4,1.7,1h2.1C11.4,9.3,9.9,8,8,8z M5,7c0.6,0,1-0.4,1-1S5.6,5,5,5 S4,5.4,4,6S4.4,7,5,7z M8,0C3.6,0,0,3.6,0,8s3.6,8,8,8s8-3.6,8-8S12.4,0,8,0z M12.2,12.2C11.1,13.4,9.6,14,8,14s-3.1-0.6-4.2-1.8 C2.6,11.1,2,9.6,2,8s0.6-3.1,1.8-4.2C4.9,2.6,6.4,2,8,2s3.1,0.6,4.2,1.8C13.4,4.9,14,6.4,14,8S13.4,11.1,12.2,12.2z M11,5 c-0.6,0-1,0.4-1,1s0.4,1,1,1s1-0.4,1-1S11.6,5,11,5z" />
</svg>
