<svg xmlns="http://www.w3.org/2000/svg" width="1440" height="1024" viewBox="0 0 1440 1024"><path fill="#474CCC" d="M0 0h1440v1024h-1440z"/><path fill="#393DA3" d="M0 384h1440v640h-1440z"/>
  <g fill="#393DA3"><path d="M560 320c-17.7 0-32 14.3-32 32v4.3c-4.7-2.7-10.2-4.3-16-4.3-17.7 0-32 14.3-32 32h112v-32c0-17.7-14.3-32-32-32z"/><path d="M1216 352c-17.7 0-32 14.3-32 32h64c0-17.7-14.3-32-32-32z"/></g><circle fill="#FFC700" cx="832" cy="160" r="64"/>
  <g fill="#fff"><path d="M1056 296c-4.6 0-8.9 1.3-12.6 3.6-7.7-16.3-24.2-27.6-43.4-27.6 0-26.5-21.5-48-48-48s-48 21.5-48 48c-26.5 0-48 21.5-48 48h224c0-13.3-10.7-24-24-24z"/><path d="M1264 112c0-26.5-21.5-48-48-48-21.8 0-40.3 14.6-46.1 34.6-5.7-1.7-11.7-2.6-17.9-2.6-35.3 0-64 28.7-64 64h224c0-26.5-21.5-48-48-48z"/><path d="M800 152c-2.1 0-4.1.3-6 .8-8.2-14.8-23.9-24.8-42-24.8-26.5 0-48 21.5-48 48h120c0-13.3-10.7-24-24-24z"/></g>
  <g><path
    fill="#fff"
    d="M1176 434c-56.2 0-94.8-13.2-117.4-24.2-24.6-12-35.6-23.9-36.1-24.4l2.9-2.7c.1.1 11.2 12 35.1 23.7 22.1 10.8 60.1 23.7 115.4 23.7s93.3-12.9 115.4-23.7c24-11.7 35-23.6 35.1-23.7l2.9 2.7c-.5.5-11.5 12.4-36.1 24.4-22.4 11-61 24.2-117.2 24.2z"/><path
    fill="#fff"
    d="M1176 410c-56.2 0-94.8-13.2-117.4-24.2-24.6-12-35.6-23.9-36.1-24.4l2.9-2.7c.1.1 11.2 12 35.1 23.7 22.1 10.8 60.1 23.7 115.4 23.7s93.3-12.9 115.4-23.7c24-11.7 35-23.6 35.1-23.7l2.9 2.7c-.5.5-11.5 12.4-36.1 24.4-22.4 11-61 24.2-117.2 24.2z"/>
    <g><path fill="#5860FF" d="M1312 364h96v8h-96zM1312 388h96v8h-96z"/><path fill="#6F76FF" d="M1352 348h16v224h-16z"/><path fill="#8A90FF" d="M1352 348h8v224h-8z"/><path fill="#5860FF" d="M1320 364h16c0-4.4-3.6-8-8-8s-8 3.6-8 8zM1320 388h16c0-4.4-3.6-8-8-8s-8 3.6-8 8zM1384 364h16c0-4.4-3.6-8-8-8s-8 3.6-8 8zM1384 388h16c0-4.4-3.6-8-8-8s-8 3.6-8 8z"/></g>
    <g><path fill="#5860FF" d="M944 364h96v8h-96zM944 388h96v8h-96z"/><path fill="#6F76FF" d="M984 348h16v224h-16z"/><path fill="#8A90FF" d="M984 348h8v224h-8z"/><path fill="#5860FF" d="M952 364h16c0-4.4-3.6-8-8-8s-8 3.6-8 8zM952 388h16c0-4.4-3.6-8-8-8s-8 3.6-8 8zM1016 364h16c0-4.4-3.6-8-8-8s-8 3.6-8 8zM1016 388h16c0-4.4-3.6-8-8-8s-8 3.6-8 8z"/></g>
  </g>
  <g><path fill="#8A90FF" d="M1056 284h64v288h-64z"/><path fill="#6F76FF" d="M1120 284h96v288h-96z"/><path fill="#8A90FF" d="M1088 256l32 28h-64z"/><path fill="#5860FF" d="M1216 284h-96l-32-28h96z"/><path fill="#393DA3" d="M1080 412h16v16h-16zM1080 380h16v16h-16z"/><path fill="#FFC700" d="M1080 348h16v16h-16z"/><path fill="#393DA3" d="M1080 316h16v16h-16z"/>
    <g fill="#393DA3"><path d="M1144 412h16v16h-16zM1144 380h16v16h-16zM1144 348h16v16h-16zM1144 316h16v16h-16z"/></g><path fill="#393DA3" d="M1176 412h16v16h-16z"/><path fill="#FFC700" d="M1176 380h16v16h-16z"/><path fill="#393DA3" d="M1176 348h16v16h-16z"/><path fill="#FFC700" d="M1176 316h16v16h-16z"/></g>
  <g><path fill="#8A90FF" d="M1152 460h64v112h-64z"/><path fill="#6F76FF" d="M1216 460h96v112h-96z"/><path fill="#8A90FF" d="M1184 432l32 28h-64z"/><path fill="#5860FF" d="M1312 460h-96l-32-28h96z"/><path fill="#393DA3" d="M1176 524h16v16h-16z"/><path fill="#FFC700" d="M1176 492h16v16h-16zM1240 524h16v16h-16z"/><path fill="#393DA3" d="M1240 492h16v16h-16zM1272 524h16v16h-16zM1272 492h16v16h-16z"/></g>
  <g><path fill="#8A90FF" d="M944 500h96v192h-96z"/><path fill="#6F76FF" d="M1040 500h128v192h-128z"/><path fill="#8A90FF" d="M992 460l48 40h-96z"/><path fill="#5860FF" d="M1168 500h-128l-48-40h128z"/><path fill="#393DA3" d="M968 628h16v16h-16z"/><path fill="#FFC700" d="M1000 628h16v16h-16zM968 596h16v16h-16z"/><path fill="#393DA3" d="M1000 596h16v16h-16z"/><path fill="#FFC700" d="M968 564h16v16h-16z"/><path fill="#393DA3" d="M1000 564h16v16h-16zM968 532h16v16h-16zM1000 532h16v16h-16zM1064 628h16v16h-16zM1064 596h16v16h-16z"/><path fill="#FFC700" d="M1064 564h16v16h-16z"/><path fill="#393DA3" d="M1064 532h16v16h-16zM1096 628h16v16h-16zM1096 596h16v16h-16zM1096 564h16v16h-16z"/><path fill="#FFC700" d="M1096 532h16v16h-16zM1128 628h16v16h-16z"/><path fill="#393DA3" d="M1128 596h16v16h-16zM1128 564h16v16h-16zM1128 532h16v16h-16z"/></g>
  <g><path fill="#8A90FF" d="M816 660h64v112h-64z"/><path fill="#6F76FF" d="M880 660h96v112h-96z"/><path fill="#8A90FF" d="M848 632l32 28h-64z"/><path fill="#5860FF" d="M976 660h-96l-32-32h96z"/><path fill="#393DA3" d="M840 724h16v16h-16z"/><path fill="#FFC700" d="M840 692h16v16h-16zM904 724h16v16h-16z"/><path fill="#393DA3" d="M904 692h16v16h-16zM936 724h16v16h-16z"/><path fill="#FFC700" d="M936 692h16v16h-16z"/><path fill="#8A90FF" d="M880 660h-64c0-17.7 14.3-32 32-32s32 14.3 32 32z"/><path fill="#5860FF" d="M976 660h-64c0-17.7 14.3-32 32-32s32 14.3 32 32z"/></g>
  <g>
    <g><path fill="#6F76FF" d="M822 316h16v256h-16z"/><path fill="#8A90FF" d="M822 316h8v256h-8z"/>
      <g><path fill="#5860FF" d="M854 300l-16 16h-8v-128l8 8zM830.9 344.8l-5.1-22 4.2-6.8 108.6 67.8-11.1 2.6zM808 302.9l22 5.1 4.2 6.8-108.5 67.8 2.5-11z"/><circle fill="#8A90FF" cx="830" cy="316" r="8"/></g>
    </g>
    <g><path fill="#6F76FF" d="M726 412h16v160h-16z"/><path fill="#8A90FF" d="M726 412h8v160h-8z"/>
      <g><path fill="#5860FF" d="M750.1 436l-16-16v-8h128l-8 8zM705.2 412.8l22.1-5.1 6.8 4.3-67.9 108.5-2.5-11zM747.2 389.9l-5.1 22.1-6.8 4.2-67.9-108.5 11.1 2.5z"/><circle fill="#8A90FF" cx="734" cy="412" r="8"/></g>
    </g>
  </g>
  <g><path fill="#5860FF" d="M1040 740h96v64h-96z"/><path fill="#8A90FF" d="M976 836h64v64h-64z"/><path fill="#6F76FF" d="M1040 804h320v96h-320zM1136 804h-96v-64z"/><path fill="#8A90FF" d="M976 836h64v-64z"/><path fill="#6F76FF" d="M1232 804h-96v-64zM1300 676h28v128h-28zM1256 676h28v128h-28z"/><path fill="#fff" d="M1304 652c-4.6 0-8.9 1.3-12.6 3.6-7.7-16.3-24.2-27.6-43.4-27.6 0-26.5-21.5-48-48-48s-48 21.5-48 48 21.5 48 48 48h128c0-13.3-10.7-24-24-24z"/><path fill="#FFC700" d="M1064 836h48v16h-48z"/><path fill="#393DA3" d="M1160 836h48v16h-48z"/></g>
  <g>
    <g><path fill="#6F76FF" d="M1000 912h-64l32-32h64z"/><path fill="#8A90FF" d="M968 912h-32l32-32h32z"/><path fill="#5860FF" d="M960 912h16v8h-16z"/></g>
    <g><path fill="#6F76FF" d="M960 952h-64l32-32h64z"/><path fill="#8A90FF" d="M928 952h-32l32-32h32z"/><path fill="#5860FF" d="M920 952h16v8h-16z"/></g>
    <g><path fill="#6F76FF" d="M920 912h-64l32-32h64z"/><path fill="#8A90FF" d="M888 912h-32l32-32h32z"/><path fill="#5860FF" d="M880 912h16v8h-16z"/></g>
    <g><path fill="#6F76FF" d="M880 952h-64l32-32h64z"/><path fill="#8A90FF" d="M848 952h-32l32-32h32z"/><path fill="#5860FF" d="M840 952h16v8h-16z"/></g>
    <g><path fill="#6F76FF" d="M1040 952h-64l32-32h64z"/><path fill="#8A90FF" d="M1008 952h-32l32-32h32z"/><path fill="#5860FF" d="M1000 952h16v8h-16z"/></g>
  </g>
  <g>
    <g><path fill="#6F76FF" d="M768 822l-16-32h8l-16-32h8l-32-64-32 64h8l-16 32h8l-16 32z"/><path fill="#8A90FF" d="M688 758h8l-16 32h8l-16 32h48v-128z"/><path fill="#5860FF" d="M712 822h16v32h-16z"/></g>
    <g><path fill="#6F76FF" d="M808 830l-20-40h8l-28-56-28 56h8l-20 40z"/><path fill="#8A90FF" d="M740 790h8l-20 40h40v-96z"/><path fill="#5860FF" d="M760 830h16v24h-16z"/></g>
  </g>
  <g><path fill="#6F76FF" d="M838 612l-20-40h8l-28-56-28 56h8l-20 40z"/><path fill="#8A90FF" d="M770 572h8l-20 40h40v-96z"/><path fill="#5860FF" d="M790 612h16v24h-16z"/></g>
  <g><path fill="#8A90FF" d="M1408 540h8l-16 32h8l-16 32h48v-128z"/><path fill="#5860FF" d="M1432 604h8v32h-8z"/></g>
  <g>
    <g><path fill="#6F76FF" d="M1340 936l-20-40h8l-28-56-28 56h8l-20 40z"/><path fill="#8A90FF" d="M1272 896h8l-20 40h40v-96z"/><path fill="#5860FF" d="M1292 936h16v24h-16z"/></g>
    <g><path fill="#6F76FF" d="M1416 928l-16-32h8l-16-32h8l-32-64-32 64h8l-16 32h8l-16 32z"/><path fill="#8A90FF" d="M1336 864h8l-16 32h8l-16 32h48v-128z"/><path fill="#5860FF" d="M1360 928h16v32h-16z"/></g>
  </g>
</svg>
